Red Hot Chili Peppers
The Adventures Of Rain Dance Maggie
Live Jonathan Ross
2011-09-10
Source: itv Channel HD

Video
ID                                       : 513 (0x201)
Menu ID                                  : 3851 (0xF0B)
Format                                   : AVC
Format/Info                              : Advanced Video Codec
Format version                           : Version 2
Format profile                           : Main@L4.0
Format settings, CABAC                   : Yes
Format settings, ReFrames                : 4 frames
Format settings, GOP                     : M=4, N=12
Codec ID                                 : 27
Duration                                 : 5mn 3s
Bit rate                                 : 8 233 Kbps
Width                                    : 1 920 pixels
Height                                   : 1 080 pixels
Display aspect ratio                     : 16:9
Frame rate                               : 25.000 fps
Color space                              : YUV
Chroma subsampling                       : 4:2:0
Bit depth                                : 8 bits
Scan type                                : Interlaced
Scan order                               : Top Field First
Bits/(Pixel*Frame)                       : 0.159
Stream size                              : 298 MiB (89%)
Color primaries                          : BT.709-5, BT.1361, IEC 61966-2-4, SMPTE RP177
Transfer characteristics                 : BT.709-5, BT.1361
Matrix coefficients                      : BT.709-5, BT.1361, IEC 61966-2-4 709, SMPTE RP177

Audio #1
ID                                       : 641 (0x281)
Menu ID                                  : 3851 (0xF0B)
Format                                   : MPEG Audio
Format version                           : Version 1
Format profile                           : Layer 2
Codec ID                                 : 4
Duration                                 : 5mn 3s
Bit rate mode                            : Constant
Bit rate                                 : 192 Kbps
Channel(s)                               : 2 channels
Sampling rate                            : 48.0 KHz
Compression mode                         : Lossy
Delay relative to video                  : 53ms
Stream size                              : 6.94 MiB (2%)
Language                                 : nar

Audio #2
ID                                       : 661 (0x295)
Menu ID                                  : 3851 (0xF0B)
Format                                   : AC-3
Format/Info                              : Audio Coding 3
Mode extension                           : CM (complete main)
Codec ID                                 : 6
Duration                                 : 5mn 3s
Bit rate mode                            : Constant
Bit rate                                 : 384 Kbps
Channel(s)                               : 2 channels
Channel positions                        : Front: L R
Sampling rate                            : 48.0 KHz
Bit depth                                : 16 bits
Compression mode                         : Lossy
Delay relative to video                  : 12ms
Stream size                              : 13.9 MiB (4%)
Language                                 : English

df608ab290438a9bb3cfe4ef6c77454f *Red Hot Chili Peppers - The Adventures Of Rain Dance Maggie (Live Jonathan Ross 1080i).ts
